<?xml version="1.0" encoding="UTF-8"?>
<svg height="50px" viewBox="0 0 369 84" version="1.1" xmlns="http://www.w3.org/2000/svg" xmlns:xlink="http://www.w3.org/1999/xlink">
    <title>KR_H-logo</title>
    <g id="Page-1" stroke="none" stroke-width="1" fill="none" fill-rule="evenodd">
        <g id="KR_H-logo" transform="translate(-0.000000, 0.000000)" fill="#000000" fill-rule="nonzero">
            <g id="Group" transform="translate(0.000000, 35.060000)">
                <path d="M13.68,23.33 L13.61,23.19 C12.13,25.35 9.94,26.54 7.42,26.54 C2.06,26.54 -8.8817842e-16,21.43 -8.8817842e-16,16.89 C-8.8817842e-16,12.35 2.05,7.39 7.42,7.39 C9.83,7.39 12.35,8.54 13.61,10.67 L13.68,10.6 L13.68,0.02 L15.84,0.02 L15.84,21.94 C15.84,23.34 15.95,24.78 16.02,26.01 L13.79,26.01 L13.68,23.35 L13.68,23.33 Z M7.77,9.36 C3.67,9.36 2.34,13.18 2.34,16.63 C2.34,20.08 3.31,24.55 7.45,24.55 C12.17,24.55 13.61,20.63 13.61,16.52 C13.61,12.85 11.99,9.36 7.78,9.36 L7.77,9.36 Z" id="Shape"></path>
                <path d="M21,17.46 C21.07,21.31 22.83,24.55 27.26,24.55 C29.82,24.55 31.94,22.71 32.48,20.23 L34.75,20.23 C33.63,24.55 30.93,26.53 26.58,26.53 C21.18,26.53 18.66,21.89 18.66,16.96 C18.66,12.03 21.36,7.38 26.72,7.38 C32.77,7.38 34.96,11.81 34.96,17.46 L20.99,17.46 L21,17.46 Z M32.63,15.48 C32.38,11.99 30.51,9.36 26.76,9.36 C23.23,9.36 21.36,12.31 21.07,15.48 L32.62,15.48 L32.63,15.48 Z" id="Shape"></path>
                <polygon id="Path" points="49.98 15.3 58.73 7.92 61.5 7.92 52.36 15.73 62.22 25.99 59.49 25.99 49.99 16.2 49.99 25.99 47.83 25.99 47.83 0 49.99 0 49.99 15.3"></polygon>
                <path d="M75.85,7.92 L78.01,7.92 L78.01,21.92 C78.01,23.32 78.12,24.76 78.19,25.99 L75.96,25.99 L75.85,23.33 L75.78,23.26 C74.52,25.49 72.47,26.54 70.13,26.54 C64.23,26.54 63.76,21.32 63.76,19.23 L63.76,7.93 L65.92,7.93 L65.92,19.59 C65.92,22.72 67.72,24.56 70.67,24.56 C74.23,24.56 75.85,21.57 75.85,18.33 L75.85,7.93 L75.85,7.92 Z" id="Path"></path>
                <path d="M84.17,25.99 L82.01,25.99 L82.01,11.99 C82.01,10.59 81.9,9.15 81.83,7.92 L84.06,7.92 L84.17,10.58 L84.24,10.65 C85.5,8.42 87.55,7.37 89.89,7.37 C95.79,7.37 96.26,12.59 96.26,14.68 L96.26,25.98 L94.1,25.98 L94.1,14.32 C94.1,11.19 92.3,9.35 89.35,9.35 C85.79,9.35 84.17,12.34 84.17,15.58 L84.17,25.98 L84.17,25.99 Z" id="Path"></path>
                <path d="M106.2,7.38 C109.62,7.38 112.5,8.57 112.79,12.38 L110.45,12.38 C110.23,10.11 108.22,9.36 105.99,9.36 C103.97,9.36 101.92,10.15 101.92,12.28 C101.92,14.94 105.41,14.69 110.31,16.42 C112.18,17.07 113.37,18.69 113.37,20.63 C113.37,24.7 109.59,26.53 105.77,26.53 C102.64,26.53 99.04,25.05 98.97,21.06 L101.31,21.06 C101.49,23.76 103.87,24.55 106.31,24.55 C108.61,24.55 111.02,23.47 111.02,20.95 C111.02,18.43 108.18,17.93 105.3,17.28 C102.46,16.6 99.58,15.77 99.58,12.42 C99.58,8.68 103.04,7.38 106.2,7.38 L106.2,7.38 Z" id="Path"></path>
                <path d="M118.01,9.9 L114.41,9.9 L114.41,7.92 L118.01,7.92 L118.01,4.07 L120.17,3.13 L120.17,7.92 L124.27,7.92 L124.27,9.9 L120.17,9.9 L120.17,21.99 C120.13,23.65 121,24.55 122.65,24.55 C123.3,24.55 123.94,24.51 124.52,24.33 L124.52,26.2 C123.84,26.38 123.04,26.52 122.32,26.52 C117.75,26.52 118,23.6 118,21.16 L118,9.89 L118.01,9.9 Z" id="Path"></path>
                <path d="M127.4,17.46 C127.47,21.31 129.23,24.55 133.66,24.55 C136.22,24.55 138.34,22.71 138.88,20.23 L141.15,20.23 C140.03,24.55 137.33,26.53 132.98,26.53 C127.58,26.53 125.06,21.89 125.06,16.96 C125.06,12.03 127.76,7.38 133.12,7.38 C139.17,7.38 141.36,11.81 141.36,17.46 L127.39,17.46 L127.4,17.46 Z M139.02,15.48 C138.77,11.99 136.9,9.36 133.15,9.36 C129.62,9.36 127.75,12.31 127.46,15.48 L139.01,15.48 L139.02,15.48 Z" id="Shape"></path>
                <path d="M146.57,25.99 L144.41,25.99 L144.41,11.99 C144.41,10.59 144.3,9.15 144.23,7.92 L146.46,7.92 L146.57,10.58 L146.64,10.65 C147.9,8.42 149.95,7.37 152.29,7.37 C158.19,7.37 158.66,12.59 158.66,14.68 L158.66,25.98 L156.5,25.98 L156.5,14.32 C156.5,11.19 154.7,9.35 151.75,9.35 C148.19,9.35 146.57,12.34 146.57,15.58 L146.57,25.98 L146.57,25.99 Z" id="Path"></path>
                <path d="M173.07,13.25 C172.85,10.3 171.34,9.36 168.79,9.36 C166.52,9.36 164.65,10.04 164.36,12.49 L162.06,12.49 C162.6,8.78 165.37,7.38 168.83,7.38 C172.83,7.38 175.31,9.22 175.24,13.36 L175.24,21.93 C175.2,23.33 175.35,24.77 175.42,26 L173.19,26 L173.12,23.34 L173.05,23.34 L172.94,23.59 C172.15,25.1 169.74,26.54 167.29,26.54 C163.94,26.54 161.28,24.49 161.28,20.96 C161.28,18.51 162.75,16.64 164.91,15.74 C167.32,14.7 170.45,15.06 173.08,14.91 L173.08,13.25 L173.07,13.25 Z M167.67,24.55 C172.39,24.55 173.29,20.66 173.07,16.88 C170.01,16.99 163.6,16.41 163.6,20.95 C163.6,23.4 165.47,24.55 167.67,24.55 Z" id="Shape"></path>
                <path d="M189.58,13.25 C189.36,10.3 187.85,9.36 185.3,9.36 C183.03,9.36 181.16,10.04 180.87,12.49 L178.57,12.49 C179.11,8.78 181.88,7.38 185.34,7.38 C189.34,7.38 191.82,9.22 191.75,13.36 L191.75,21.93 C191.71,23.33 191.86,24.77 191.93,26 L189.7,26 L189.63,23.34 L189.56,23.34 L189.45,23.59 C188.66,25.1 186.25,26.54 183.8,26.54 C180.45,26.54 177.79,24.49 177.79,20.96 C177.79,18.51 179.27,16.64 181.43,15.74 C183.84,14.7 186.97,15.06 189.6,14.91 L189.6,13.25 L189.58,13.25 Z M184.18,24.55 C188.89,24.55 189.8,20.66 189.58,16.88 C186.52,16.99 180.11,16.41 180.11,20.95 C180.11,23.4 181.98,24.55 184.18,24.55 Z" id="Shape"></path>
                <path d="M197.75,25.99 L195.59,25.99 L195.59,11.99 C195.63,10.59 195.48,9.15 195.41,7.92 L197.64,7.92 L197.75,10.58 L197.82,10.58 C198.47,8.74 200.09,7.45 201.89,7.38 C202.61,7.34 203.33,7.38 204.05,7.42 L204.05,9.51 C203.62,9.47 203.15,9.37 202.72,9.37 C199.52,9.37 197.83,11.67 197.75,15.13 L197.75,26 L197.75,25.99 Z" id="Path"></path>
                <path d="M212,7.38 C215.42,7.38 218.3,8.57 218.59,12.38 L216.25,12.38 C216.03,10.11 214.02,9.36 211.79,9.36 C209.77,9.36 207.72,10.15 207.72,12.28 C207.72,14.94 211.21,14.69 216.11,16.42 C217.98,17.07 219.17,18.69 219.17,20.63 C219.17,24.7 215.39,26.53 211.57,26.53 C208.44,26.53 204.84,25.05 204.77,21.06 L207.11,21.06 C207.29,23.76 209.66,24.55 212.11,24.55 C214.41,24.55 216.83,23.47 216.83,20.95 C216.83,18.43 213.99,17.93 211.11,17.28 C208.27,16.6 205.39,15.77 205.39,12.42 C205.39,8.68 208.85,7.38 212.01,7.38 L212,7.38 Z" id="Path"></path>
            </g>
            <g id="Group" transform="translate(224.000680, 0.000000)">
                <path d="M10.1293196,23.48 C10.1293196,12.65 9.78931957,10.71 5.10931957,10.14 L1.45931957,9.68 C0.659319567,9.11 0.659319567,7.29 1.56931957,6.83 C7.94931957,6.26 15.8193196,5.92 26.9893196,5.92 C34.0593196,5.92 40.7793196,6.49 46.0293196,9.34 C51.4993196,12.19 55.4893196,17.32 55.4893196,25.3 C55.4893196,36.13 46.9393196,42.06 41.2393196,44.34 C40.6693196,45.02 41.2393196,46.16 41.8093196,47.08 C50.9293196,61.79 56.9693196,70.91 64.7193196,77.4 C66.6593196,79.11 69.5093196,80.36 72.5893196,80.59 C73.1593196,80.82 73.2693196,81.73 72.6993196,82.19 C71.6693196,82.53 69.8493196,82.76 67.6793196,82.76 C57.9893196,82.76 52.1793196,79.91 44.0793196,68.4 C41.1193196,64.18 36.4393196,56.32 32.9093196,51.19 C31.1993196,48.68 29.3793196,47.54 24.8193196,47.54 C19.6893196,47.54 19.4593196,47.65 19.4593196,50.05 L19.4593196,64.41 C19.4593196,76.38 19.6893196,77.75 26.2993196,78.66 L28.6893196,79 C29.3693196,79.57 29.1493196,81.51 28.4593196,81.85 C23.3293196,81.62 19.4493196,81.51 14.8893196,81.51 C10.0993196,81.51 5.99931957,81.62 0.639319567,81.85 C-0.0406804328,81.51 -0.270680433,79.8 0.409319567,79 L3.25931957,78.66 C9.86931957,77.86 10.0993196,76.38 10.0993196,64.41 L10.0993196,23.48 L10.1293196,23.48 Z M19.4793196,39.79 C19.4793196,41.84 19.4793196,43.1 19.8193196,43.55 C20.1593196,43.89 21.8693196,44.12 27.6893196,44.12 C31.7893196,44.12 36.1293196,43.66 39.4293196,41.16 C42.5093196,38.77 45.1293196,34.78 45.1293196,27.02 C45.1293196,18.01 39.5393196,9.46 26.8893196,9.46 C19.8193196,9.46 19.4793196,9.92 19.4793196,13.11 L19.4793196,39.79 Z" id="Shape"></path>
                <path d="M118.72932,58.59 C118.72932,72.84 108.92932,83.1 94.6793196,83.1 C81.5693196,83.1 71.3093196,73.87 71.3093196,59.62 C71.3093196,45.37 82.1393196,35 95.5893196,35 C109.03932,35 118.72932,44.58 118.72932,58.6 L118.72932,58.59 Z M94.2193196,38.42 C86.6993196,38.42 81.1093196,45.6 81.1093196,58.14 C81.1093196,68.51 85.7793196,79.69 95.8193196,79.69 C105.85932,79.69 108.92932,69.2 108.92932,60.42 C108.92932,50.73 105.04932,38.42 94.2193196,38.42 Z" id="Shape"></path>
                <path d="M137.40932,68.74 C137.40932,76.95 137.63932,78.09 141.73932,78.66 L144.47932,79 C145.27932,79.57 145.04932,81.51 144.24932,81.85 C140.48932,81.62 137.17932,81.51 133.18932,81.51 C129.19932,81.51 125.66932,81.62 122.24932,81.85 C121.44932,81.51 121.21932,79.57 122.01932,79 L124.63932,78.66 C128.85932,78.09 128.96932,76.95 128.96932,68.74 L128.96932,17.21 C128.96932,10.48 128.85932,9.8 125.43932,7.75 L124.29932,7.07 C123.72932,6.73 123.72932,5.13 124.29932,4.79 C127.14932,3.88 132.50932,2.17 136.60932,8.8817842e-16 C137.06932,8.8817842e-16 137.51932,0.23 137.74932,0.68 C137.63932,4.1 137.40932,9.8 137.40932,14.82 L137.40932,68.74 Z" id="Path"></path>
            </g>
        </g>
    </g>
</svg>