<?xml version="1.0" encoding="UTF-8"?>
<svg width="32px" height="32px" viewBox="0 0 32 32" version="1.1" xmlns="http://www.w3.org/2000/svg" xmlns:xlink="http://www.w3.org/1999/xlink">
    <title>KR_monogram</title>
    <g id="Page-1" stroke="none" stroke-width="1" fill="none" fill-rule="evenodd">
        <g id="KR_monogram" transform="translate(-0.000000, -0.000000)" fill-rule="nonzero">
            <circle id="Oval" fill="#FFFFFF" transform="translate(16.000000, 16.000000) rotate(-80.780000) translate(-16.000000, -16.000000) " cx="16" cy="16" r="13.945711"></circle>
            <path d="M16,30.0606061 C8.24686636,30.0606061 1.93939394,23.7531336 1.93939394,16 C1.93939394,8.24686636 8.24686636,1.93939394 16,1.93939394 C23.7531336,1.93939394 30.0606061,8.24686636 30.0606061,16 C30.0606061,23.7531336 23.7531336,30.0606061 16,30.0606061 Z M16,2.19226538 C8.38522997,2.19226538 2.19226538,8.38522997 2.19226538,16 C2.19226538,23.61477 8.38522997,29.8077346 16,29.8077346 C23.61477,29.8077346 29.8077346,23.61477 29.8077346,16 C29.8077346,8.38522997 23.61477,2.19226538 16,2.19226538 Z" id="Shape" fill="#000000"></path>
            <path d="M11.6956737,12.2740101 C11.6956737,10.0895312 11.6284835,9.69544932 10.6974187,9.5786843 L9.97272387,9.48624533 C9.81434686,9.36948032 9.81434686,9.00458964 9.99672038,8.91215067 C11.2685358,8.79538565 12.8331086,8.72727273 15.0599854,8.72727273 C16.4661812,8.72727273 17.8051868,8.84403774 18.851435,9.41813241 C19.9408768,9.99222707 20.7375612,11.0285166 20.7375612,12.6389008 C20.7375612,14.8233796 19.0338085,16.020221 17.9011729,16.4824159 C17.7859896,16.6186417 17.9011729,16.8521718 18.0163562,17.0370497 C19.8304928,20.0048272 21.035118,21.8487414 22.5804936,23.1574826 C22.9644379,23.5029125 23.535555,23.7559033 24.1450665,23.8045554 C24.2602498,23.8483423 24.279447,24.0332203 24.169063,24.1256592 C23.962693,24.1937722 23.6027452,24.2424242 23.1708079,24.2424242 C21.241488,24.2424242 20.0848559,23.6683296 18.47229,21.3427597 C17.8819757,20.4913481 16.9509109,18.90529 16.2454133,17.8690004 C15.9046627,17.3630187 15.5399157,17.1343539 14.6328474,17.1343539 C13.6105958,17.1343539 13.567402,17.1586799 13.567402,17.6403356 L13.567402,20.5400002 C13.567402,22.9580091 13.6105958,23.235326 14.9304042,23.4153387 L15.4055352,23.4834516 C15.5399157,23.6002167 15.496722,23.9894334 15.3623415,24.0575463 C14.3400899,24.0137594 13.567402,23.9894334 12.6603337,23.9894334 C11.7052724,23.9894334 10.8893908,24.0137594 9.82394546,24.0575463 C9.68956497,23.9894334 9.64157194,23.6440035 9.78075173,23.4834516 L10.3470695,23.4153387 C11.6620786,23.2547868 11.7100717,22.9531439 11.7100717,20.5400002 L11.7100717,12.2788753 L11.6956737,12.2740101 Z M13.5578034,15.5628914 C13.5578034,15.9764341 13.5578034,16.229425 13.6249937,16.321864 C13.6921839,16.3899769 14.0329345,16.438629 15.1895665,16.438629 C16.0054481,16.438629 16.8693227,16.34619 17.5268272,15.8402083 C18.1411381,15.3585526 18.6642621,14.5509279 18.6642621,12.9843306 C18.6642621,11.1647424 17.5508238,9.43759324 15.0311895,9.43759324 C13.6249937,9.43759324 13.5530041,9.53003221 13.5530041,10.1722398 L13.5530041,15.5580262 L13.5578034,15.5628914 Z" id="Shape" fill="#000000"></path>
        </g>
    </g>
</svg>