<?xml version="1.0" encoding="UTF-8"?>
<svg id="Layer_2" data-name="Layer 2" xmlns="http://www.w3.org/2000/svg" viewBox="0 0 58.94 58.94">
  <defs>
    <style>
      .cls-1, .cls-2 {
        stroke-width: 0px;
      }

      .cls-2 {
        fill: #fff;
      }
    </style>
  </defs>
  <g id="Layer_1-2" data-name="Layer 1">
    <g>
      <circle class="cls-2" cx="29.47" cy="29.47" r="29.47" transform="translate(-4.34 53.84) rotate(-80.78)"/>
      <path class="cls-1" d="M29.47,58.94C13.22,58.94,0,45.72,0,29.47S13.22,0,29.47,0s29.47,13.22,29.47,29.47-13.22,29.47-29.47,29.47ZM29.47.53C13.51.53.53,13.51.53,29.47s12.98,28.94,28.94,28.94,28.94-12.98,28.94-28.94S45.43.53,29.47.53Z"/>
      <path class="cls-1" d="M19.75,20.87c0-4.49-.14-5.3-2.08-5.54l-1.51-.19c-.33-.24-.33-.99.05-1.18,2.65-.24,5.91-.38,10.55-.38,2.93,0,5.72.24,7.9,1.42,2.27,1.18,3.93,3.31,3.93,6.62,0,4.49-3.55,6.95-5.91,7.9-.24.28,0,.76.24,1.14,3.78,6.1,6.29,9.89,9.51,12.58.8.71,1.99,1.23,3.26,1.33.24.09.28.47.05.66-.43.14-1.18.24-2.08.24-4.02,0-6.43-1.18-9.79-5.96-1.23-1.75-3.17-5.01-4.64-7.14-.71-1.04-1.47-1.51-3.36-1.51-2.13,0-2.22.05-2.22,1.04v5.96c0,4.97.09,5.54,2.84,5.91l.99.14c.28.24.19,1.04-.09,1.18-2.13-.09-3.74-.14-5.63-.14-1.99,0-3.69.05-5.91.14-.28-.14-.38-.85-.09-1.18l1.18-.14c2.74-.33,2.84-.95,2.84-5.91v-16.98ZM23.63,27.63c0,.85,0,1.37.14,1.56.14.14.85.24,3.26.24,1.7,0,3.5-.19,4.87-1.23,1.28-.99,2.37-2.65,2.37-5.87,0-3.74-2.32-7.29-7.57-7.29-2.93,0-3.08.19-3.08,1.51v11.07Z"/>
    </g>
  </g>
</svg>